<?xml version="1.0" encoding="UTF-8" standalone="no"?>
<!-- Created with Inkscape (http://www.inkscape.org/) -->

<svg
   xmlns:dc="http://purl.org/dc/elements/1.1/"
   xmlns:cc="http://creativecommons.org/ns#"
   xmlns:rdf="http://www.w3.org/1999/02/22-rdf-syntax-ns#"
   xmlns:svg="http://www.w3.org/2000/svg"
   xmlns="http://www.w3.org/2000/svg"
   version="1.1"
   width="493.63034"
   height="337.01202"
   id="svg2">
  <defs
     id="defs4" />
  <metadata
     id="metadata7">
    <rdf:RDF>
      <cc:Work
         rdf:about="">
        <dc:format>image/svg+xml</dc:format>
        <dc:type
           rdf:resource="http://purl.org/dc/dcmitype/StillImage" />
        <dc:title></dc:title>
      </cc:Work>
    </rdf:RDF>
  </metadata>
  <g
     transform="translate(-142.20361,-401.00982)"
     id="layer1">
    <g
       transform="scale(1.0016733,0.9983295)"
       id="text2985"
       style="font-size:74.19445038px;font-style:normal;font-weight:normal;line-height:125%;letter-spacing:0px;word-spacing:0px;fill:#000000;fill-opacity:1;stroke:none;font-family:Sans">
      <path
         d="m 212.40134,415.18422 -46.89089,0 c -5.83666,5e-5 -9.12594,2.91836 -9.86787,8.75495 l 57.05554,0 0,10.90658 c -8e-5,16.12494 -8.70555,24.18739 -26.11645,24.18739 l -44.21989,0 0,-13.57758 47.18767,0 c 5.58926,1e-5 8.82908,-2.86884 9.71947,-8.60656 l -56.90714,0 0,-10.98078 c -1e-5,-16.12488 8.70547,-24.18733 26.11644,-24.18739 l 43.92312,0 0,13.50339"
         id="path3041"
         style="font-variant:normal;font-stretch:normal;font-family:Xirod;-inkscape-font-specification:Xirod" />
      <path
         d="m 295.06323,415.18422 -58.8362,0 0,8.75495 49.93287,0 0,12.90983 -49.19092,0 c 0.84085,2.76995 2.34946,4.89685 4.52586,6.38072 2.2258,1.48391 5.46563,2.22585 9.71947,2.22584 l 43.84892,0 0,13.57758 -44.1457,0 c -4.45169,0 -8.45819,-0.66775 -12.0195,-2.00325 -3.51189,-1.33549 -6.50439,-3.21509 -8.97753,-5.63878 -2.47316,-2.47313 -4.37748,-5.46564 -5.71297,-8.97752 -1.28604,-3.51186 -1.92906,-7.46889 -1.92906,-11.87112 l 0,-28.86164 72.78476,0 0,13.50339"
         id="path3043"
         style="font-variant:normal;font-stretch:normal;font-family:Xirod;-inkscape-font-specification:Xirod" />
      <path
         d="m 381.12416,459.03314 -14.76469,0 c -7.9636,-10.83238 -15.70455,-19.68624 -23.22287,-26.56161 -7.51841,-6.87532 -15.03677,-11.72269 -22.55511,-14.54211 -0.54412,-0.19781 -1.13767,-0.4204 -1.78067,-0.66775 -0.64304,-0.24728 -1.31079,-0.49459 -2.00325,-0.74195 0.14837,2.07749 0.22257,3.41299 0.22259,4.0065 l 0,38.50692 -13.57759,0 0,-57.35231 12.0195,0 c 4.60004,1.48395 9.10116,3.413 13.50339,5.78717 4.40217,2.32481 8.68071,4.99581 12.83564,8.013 4.20431,2.96782 8.26027,6.23237 12.16789,9.79367 3.90752,3.56136 7.64197,7.27108 11.20336,11.12916 l 2.52262,2.7452 c -0.14846,-1.68172 -0.22266,-2.94302 -0.22259,-3.78392 l 0,-33.68428 13.65178,0 0,57.35231"
         id="path3045"
         style="font-variant:normal;font-stretch:normal;font-family:Xirod;-inkscape-font-specification:Xirod" />
      <path
         d="m 461.50341,415.18422 -46.8909,0 c -5.83665,5e-5 -9.12593,2.91836 -9.86786,8.75495 l 57.05553,0 0,10.90658 c -7e-5,16.12494 -8.70555,24.18739 -26.11644,24.18739 l -44.2199,0 0,-13.57758 47.18767,0 c 5.58926,1e-5 8.82908,-2.86884 9.71948,-8.60656 l -56.90715,0 0,-10.98078 c 0,-16.12488 8.70547,-24.18733 26.11645,-24.18739 l 43.92312,0 0,13.50339"
         id="path3047"
         style="font-variant:normal;font-stretch:normal;font-family:Xirod;-inkscape-font-specification:Xirod" />
      <path
         d="m 533.55549,415.18422 -33.23911,0 c -2.86889,5e-5 -5.26784,0.24736 -7.19687,0.74195 -1.92908,0.49467 -3.46243,1.33554 -4.60005,2.52261 -1.13767,1.18715 -1.95381,2.76996 -2.44842,4.74844 -0.49465,1.92909 -0.74196,4.37751 -0.74194,7.34525 l 0,14.91309 33.23911,0 c 2.81933,1e-5 5.16882,-0.22257 7.04847,-0.66775 1.929,-0.49462 3.46235,-1.31076 4.60006,-2.44842 1.18705,-1.18709 2.02792,-2.74517 2.52261,-4.67425 0.54403,-1.97849 0.81607,-4.45164 0.81614,-7.41944 l 0,-15.06148 m 13.94856,-13.50339 0,28.86164 c -8e-5,4.45169 -0.6431,8.45819 -1.92906,12.0195 -1.23665,3.51189 -3.09151,6.50439 -5.56458,8.97753 -2.42376,2.42369 -5.41627,4.27855 -8.97753,5.56459 -3.5614,1.28603 -7.61736,1.92905 -12.16789,1.92905 l -47.48445,0 0,-28.78744 c 0,-4.35271 0.64301,-8.28501 1.92906,-11.79692 1.28603,-3.56129 3.14088,-6.57853 5.56458,-9.05173 2.47313,-2.47309 5.46564,-4.37741 8.97753,-5.71297 3.56131,-1.33544 7.61727,-2.00319 12.16789,-2.00325 l 47.48445,0"
         id="path3049"
         style="font-variant:normal;font-stretch:normal;font-family:Xirod;-inkscape-font-specification:Xirod" />
      <path
         d="m 578.30982,423.93917 32.57136,0 c 2.81933,3e-5 5.02043,-0.74191 6.60331,-2.22584 1.63221,-1.53331 2.67093,-3.70968 3.11617,-6.52911 l -48.74576,0 0,43.84892 -13.94855,0 0,-57.35231 76.1977,0 0,10.98078 c -8e-5,14.49268 -7.04855,22.48094 -21.14542,23.96481 l 21.81317,22.40672 -16.91634,0 -22.10994,-22.18414 -17.4357,0 0,-12.90983"
         id="path3051"
         style="font-variant:normal;font-stretch:normal;font-family:Xirod;-inkscape-font-specification:Xirod" />
    </g>
    <g
       transform="scale(0.84722729,1.1803208)"
       id="text2989"
       style="font-size:66.80075836px;font-style:normal;font-weight:normal;line-height:125%;letter-spacing:0px;word-spacing:0px;fill:#000000;fill-opacity:1;stroke:none;font-family:Sans">
      <path
         d="m 168.00073,450.81113 0,-51.63699 68.60437,0 0,9.88651 c -7e-5,14.51806 -7.86028,21.77707 -23.58066,21.77705 l -26.65351,0 0,-11.62333 29.32554,0 c 2.53837,3e-5 4.52012,-0.66798 5.94526,-2.00402 1.46956,-1.38052 2.40477,-3.34001 2.80564,-5.87847 l -43.8881,0 0,39.47925 -12.55854,0"
         id="path3024"
         style="font-variant:normal;font-stretch:normal;font-family:Xirod;-inkscape-font-specification:Xirod" />
      <path
         d="m 257.01483,399.17414 0,39.41245 47.22813,0 0,12.22454 -59.78668,0 0,-51.63699 12.55855,0"
         id="path3026"
         style="font-variant:normal;font-stretch:normal;font-family:Xirod;-inkscape-font-specification:Xirod" />
      <path
         d="m 324.1308,419.48157 41.21607,0 c -0.3118,-2.09306 -1.51421,-3.98574 -3.60724,-5.67806 -2.04861,-1.64772 -7.01413,-2.47159 -14.89657,-2.47163 l -22.71226,0 0,8.14969 m -12.55854,-20.30743 41.41647,0 c 4.05253,5e-5 7.68203,0.60126 10.88852,1.80362 3.20638,1.15793 5.90067,2.85021 8.08289,5.07686 2.22663,2.1822 3.91891,4.87649 5.07686,8.08289 1.15781,3.16194 1.73675,6.74691 1.73682,10.75492 l 0,25.9187 -12.62534,0 0,-19.70623 -42.01768,0 0,19.70623 -12.55854,0 0,-51.63699"
         id="path3028"
         style="font-variant:normal;font-stretch:normal;font-family:Xirod;-inkscape-font-specification:Xirod" />
      <path
         d="m 442.87123,411.33188 -22.51185,0 0,39.47925 -12.49174,0 0,-39.47925 -22.64546,0 0,-12.15774 57.64905,0 0,12.15774"
         id="path3030"
         style="font-variant:normal;font-stretch:normal;font-family:Xirod;-inkscape-font-specification:Xirod" />
      <path
         d="m 507.54795,430.8377 -46.35973,0 0,19.97343 -12.55854,0 0,-25.9187 c 0,-3.91895 0.57893,-7.45938 1.73682,-10.62132 1.15787,-3.20639 2.82789,-5.92296 5.01006,-8.14969 2.22667,-2.22665 4.92097,-3.9412 8.08289,-5.14366 3.20641,-1.20236 6.85818,-1.80357 10.95532,-1.80362 l 37.27483,0 0,12.15774 -37.00762,0 c -3.82994,4e-5 -6.7469,0.69031 -8.7509,2.07082 -1.95951,1.33605 -3.31779,3.27327 -4.07485,5.81167 l 45.69172,0 0,11.62333"
         id="path3032"
         style="font-variant:normal;font-stretch:normal;font-family:Xirod;-inkscape-font-specification:Xirod" />
      <path
         d="m 572.84465,411.33188 -29.92674,0 c -2.58299,4e-5 -4.74288,0.22271 -6.47968,0.66801 -1.73684,0.44537 -3.11739,1.20245 -4.14164,2.27122 -1.0243,1.06885 -1.75911,2.49393 -2.20443,4.27525 -0.44535,1.73685 -0.66802,3.94127 -0.66801,6.61328 l 0,13.42695 29.92674,0 c 2.53838,10e-6 4.65374,-0.20039 6.34608,-0.60121 1.73676,-0.44532 3.11731,-1.18013 4.14164,-2.20442 1.06876,-1.0688 1.82583,-2.47161 2.27123,-4.20845 0.48981,-1.78133 0.73475,-4.00802 0.73481,-6.68008 l 0,-13.56055 m 12.55854,-12.15774 0,25.9855 c -7e-5,4.00806 -0.57901,7.6153 -1.73682,10.82172 -1.11342,3.16191 -2.78343,5.85621 -5.01006,8.08289 -2.18222,2.18216 -4.87651,3.85218 -8.08289,5.01006 -3.20649,1.15788 -6.85826,1.73682 -10.95532,1.73682 l -42.75249,0 0,-25.9187 c 0,-3.91895 0.57894,-7.45938 1.73682,-10.62132 1.15787,-3.20639 2.82789,-5.92296 5.01006,-8.14969 2.22668,-2.22665 4.92097,-3.9412 8.08289,-5.14366 3.20641,-1.20236 6.85818,-1.80357 10.95532,-1.80362 l 42.75249,0"
         id="path3034"
         style="font-variant:normal;font-stretch:normal;font-family:Xirod;-inkscape-font-specification:Xirod" />
      <path
         d="m 613.13906,419.21437 29.32553,0 c 2.53838,3e-5 4.52013,-0.66798 5.94527,-2.00402 1.46956,-1.38052 2.40477,-3.34001 2.80563,-5.87847 l -43.88809,0 0,39.47925 -12.55855,0 0,-51.63699 68.60438,0 0,9.88651 c -7e-5,13.04845 -6.34614,20.24065 -19.03821,21.57665 l 19.63942,20.17383 -15.23057,0 -19.90663,-19.97343 -15.69818,0 0,-11.62333"
         id="path3036"
         style="font-variant:normal;font-stretch:normal;font-family:Xirod;-inkscape-font-specification:Xirod" />
      <path
         d="m 703.6614,417.67795 12.62534,0 0,33.13318 -12.62534,0 0,-33.13318 m -31.66356,-18.50381 51.77059,0 c 3.82985,5e-5 7.32575,0.57899 10.48772,1.73682 3.20636,1.15793 5.94519,2.78341 8.21649,4.87646 2.27115,2.09313 4.03023,4.58702 5.27726,7.48168 1.24687,2.89473 1.87034,6.0789 1.87042,9.55251 l 0,27.98952 -12.55854,0 0,-25.8519 c -7e-5,-9.08486 -4.43118,-13.62731 -13.29335,-13.62735 l -39.27885,0 0,39.47925 -12.49174,0 0,-51.63699"
         id="path3038"
         style="font-variant:normal;font-stretch:normal;font-family:Xirod;-inkscape-font-specification:Xirod" />
    </g>
    <g
       transform="scale(1.0646576,0.93926912)"
       id="text2993"
       style="font-size:82.53780365px;font-style:normal;font-weight:normal;line-height:125%;letter-spacing:0px;word-spacing:0px;fill:#000000;fill-opacity:1;stroke:none;font-family:Sans">
      <path
         d="m 206.57737,619.43027 -57.28123,0 0,24.6788 -15.51711,0 0,-32.02467 c 0,-4.84218 0.71532,-9.21668 2.14598,-13.12351 1.43065,-3.96176 3.49409,-7.3183 6.19034,-10.06961 2.75124,-2.7512 6.08027,-4.86967 9.98707,-6.35541 3.96179,-1.48562 8.47385,-2.22846 13.5362,-2.22852 l 46.0561,0 0,15.02188 -45.72594,0 c -4.7322,5e-5 -8.33635,0.85294 -10.81246,2.55867 -2.42113,1.6508 -4.0994,4.04439 -5.0348,7.18079 l 56.45585,0 0,14.36158"
         id="path3013"
         style="font-variant:normal;font-stretch:normal;font-family:Xirod;-inkscape-font-specification:Xirod" />
      <path
         d="m 241.4483,605.06869 36.2341,0 c 3.13637,4e-5 5.58499,-0.82534 7.34586,-2.47614 1.81576,-1.70573 2.97129,-4.12684 3.46659,-7.26332 l -54.22734,0 0,48.77984 -15.5171,0 0,-63.80172 84.76632,0 0,12.21559 c -9e-5,16.12242 -7.84117,25.00898 -23.52327,26.65971 l 24.26611,24.92642 -18.81862,0 -24.59626,-24.6788 -19.39639,0 0,-14.36158"
         id="path3015"
         style="font-variant:normal;font-stretch:normal;font-family:Xirod;-inkscape-font-specification:Xirod" />
      <path
         d="m 329.60771,605.39884 50.92583,0 c -0.38525,-2.58614 -1.87093,-4.92471 -4.45705,-7.01571 -2.53122,-2.03589 -8.66652,-3.05385 -18.40593,-3.0539 l -28.06285,0 0,10.06961 m -15.51711,-25.09149 51.17344,0 c 5.00723,6e-5 9.49178,0.7429 13.45366,2.22852 3.96175,1.43071 7.29077,3.52167 9.98708,6.27287 2.75118,2.69629 4.84213,6.02531 6.27287,9.98708 1.43057,3.90683 2.1459,8.33635 2.14598,13.28858 l 0,32.02467 -15.59964,0 0,-24.34865 -51.91628,0 0,24.34865 -15.51711,0 0,-63.80172"
         id="path3017"
         style="font-variant:normal;font-stretch:normal;font-family:Xirod;-inkscape-font-specification:Xirod" />
      <path
         d="m 447.76313,603.17032 15.59965,0 0,40.93875 -15.59965,0 0,-40.93875 m -39.12292,-22.86297 63.9668,0 c 4.73209,6e-5 9.05157,0.71539 12.95844,2.14598 3.96172,1.43072 7.34577,3.43913 10.15215,6.02526 2.80619,2.58624 4.97968,5.66765 6.52048,9.24423 1.54061,3.57669 2.31096,7.51098 2.31106,11.80291 l 0,34.58334 -15.51711,0 0,-31.94213 c -8e-5,-11.2251 -5.47508,-16.83766 -16.42502,-16.83771 l -48.53223,0 0,48.77984 -15.43457,0 0,-63.80172"
         id="path3019"
         style="font-variant:normal;font-stretch:normal;font-family:Xirod;-inkscape-font-specification:Xirod" />
      <path
         d="m 596.80837,595.32923 -65.45248,0 0,9.73946 55.54794,0 0,14.36158 -54.72256,0 c 0.93541,3.08143 2.61367,5.44751 5.03481,7.09825 2.4761,1.65077 6.08025,2.47615 10.81245,2.47613 l 48.77984,0 0,15.10442 -49.10999,0 c -4.9523,0 -9.40934,-0.74284 -13.37113,-2.22852 -3.90681,-1.48568 -7.23583,-3.57663 -9.98707,-6.27287 -2.75127,-2.75125 -4.86974,-6.08027 -6.35541,-9.98708 -1.43066,-3.90677 -2.14599,-8.30878 -2.14598,-13.20605 l 0,-32.1072 80.96958,0 0,15.02188"
         id="path3021"
         style="font-variant:normal;font-stretch:normal;font-family:Xirod;-inkscape-font-specification:Xirod" />
    </g>
    <g
       transform="scale(1.2244237,0.81671074)"
       id="text2997"
       style="font-size:86.26644897px;font-style:normal;font-weight:normal;line-height:125%;letter-spacing:0px;word-spacing:0px;fill:#000000;fill-opacity:1;stroke:none;font-family:Sans">
      <path
         d="m 177.99226,796.61408 -16.21809,0 0,-42.78816 16.21809,0 0,42.78816 m 43.47829,23.89581 -72.03248,0 c -4.94598,0 -9.46059,-0.74764 -13.54384,-2.24293 -4.0833,-1.49528 -7.59146,-3.56567 -10.5245,-6.21118 -2.93308,-2.70301 -5.20476,-5.92362 -6.81505,-9.66185 -1.61032,-3.7957 -2.41547,-7.93648 -2.41546,-12.42237 l 0,-36.14564 16.13182,0 0,33.47138 c -2e-5,11.61724 5.72232,17.42584 17.16703,17.42583 l 55.90065,0 0,-50.89721 16.13183,0 0,66.68397"
         id="path3004"
         style="font-variant:normal;font-stretch:normal;font-family:Xirod;-inkscape-font-specification:Xirod" />
      <path
         d="m 305.00882,769.52642 -38.64736,0 c -3.33568,5e-5 -6.12496,0.2876 -8.36785,0.86266 -2.24296,0.57516 -4.02579,1.55285 -5.34852,2.93306 -1.32278,1.38031 -2.27171,3.22066 -2.84679,5.52105 -0.57513,2.24297 -0.86269,5.08976 -0.86267,8.54038 l 0,17.33956 38.64737,0 c 3.27806,10e-6 6.00983,-0.25879 8.19531,-0.7764 2.24286,-0.57509 4.0257,-1.52402 5.34852,-2.84679 1.38019,-1.38025 2.35788,-3.19184 2.93306,-5.43479 0.63255,-2.30041 0.94886,-5.17596 0.94893,-8.62664 l 0,-17.51209 m 16.2181,-15.7005 0,33.55765 c -1e-4,5.17602 -0.74774,9.8344 -2.24293,13.97517 -1.43787,4.08329 -3.59452,7.5627 -6.46998,10.43824 -2.81812,2.81804 -6.29753,4.9747 -10.43824,6.46998 -4.14087,1.49529 -8.85676,2.24293 -14.1477,2.24293 l -55.21053,0 0,-33.47138 c -1e-5,-5.06093 0.74764,-9.63305 2.24293,-13.71637 1.49527,-4.14074 3.65193,-7.6489 6.46998,-10.52451 2.87553,-2.87548 6.35494,-5.08965 10.43824,-6.64251 4.14076,-1.55273 8.85666,-2.32913 14.1477,-2.3292 l 55.21053,0"
         id="path3006"
         style="font-variant:normal;font-stretch:normal;font-family:Xirod;-inkscape-font-specification:Xirod" />
      <path
         d="m 357.04502,779.70586 37.87097,0 c 3.27805,4e-5 5.83729,-0.86263 7.67771,-2.588 1.89778,-1.78279 3.10551,-4.31327 3.62319,-7.59144 l -56.67706,0 0,50.98347 -16.21809,0 0,-66.68397 88.59564,0 0,12.76744 c -9e-5,16.85075 -8.19539,26.13876 -24.58593,27.86406 l 25.36233,26.05247 -19.66875,0 -25.7074,-25.79367 -20.27261,0 0,-15.01036"
         id="path3008"
         style="font-variant:normal;font-stretch:normal;font-family:Xirod;-inkscape-font-specification:Xirod" />
      <path
         d="m 449.7909,820.50989 -16.21809,0 0,-66.68397 16.21809,0 0,25.87994 25.27607,0 22.68808,-25.87994 20.27261,0 -23.80954,26.57007 c 7.93644,1.49532 14.06135,4.97473 18.37476,10.43824 4.31323,5.46357 6.46989,12.79621 6.46998,21.99794 l 0,7.67772 -16.30436,0 0,-8.10905 c -7e-5,-11.78973 -5.80868,-17.68459 -17.42582,-17.68462 l -35.54178,0 0,25.79367"
         id="path3010"
         style="font-variant:normal;font-stretch:normal;font-family:Xirod;-inkscape-font-specification:Xirod" />
    </g>
    <g
       id="text3053"
       style="font-size:29.55074883px;font-style:normal;font-weight:normal;line-height:125%;letter-spacing:0px;word-spacing:0px;fill:#000000;fill-opacity:1;stroke:none;font-family:Sans">
      <path
         d="m 184.79156,713.1992 -15.86876,24.82263 -15.8392,-24.82263 6.56027,0 7.9787,13.41604 c 0.25609,0.41372 0.4925,0.83728 0.70922,1.27068 0.21669,0.41372 0.40384,0.83728 0.56146,1.27069 0.17729,-0.43341 0.3743,-0.85697 0.59102,-1.27069 0.23639,-0.4137 0.48264,-0.82741 0.73877,-1.24113 l 8.00825,-13.44559 6.56027,0"
         id="path3058"
         style="font-variant:normal;font-stretch:normal;font-family:Xirod;-inkscape-font-specification:Xirod" />
      <path
         d="m 216.32775,718.57744 -23.43375,0 0,3.48699 19.88766,0 0,5.14183 -19.59215,0 c 0.3349,1.10323 0.93577,1.95035 1.8026,2.54136 0.88651,0.59102 2.17689,0.88653 3.87115,0.88652 l 17.46449,0 0,5.40779 -17.5827,0 c -1.77305,0 -3.36879,-0.26596 -4.78722,-0.79787 -1.39874,-0.53191 -2.59062,-1.28053 -3.57564,-2.24586 -0.98503,-0.98502 -1.7435,-2.1769 -2.27541,-3.57564 -0.51221,-1.39872 -0.76832,-2.97476 -0.76832,-4.72812 l 0,-11.49524 28.98929,0 0,5.37824"
         id="path3060"
         style="font-variant:normal;font-stretch:normal;font-family:Xirod;-inkscape-font-specification:Xirod" />
      <path
         d="m 227.79159,722.06443 12.97278,0 c 1.12291,10e-6 1.99958,-0.2955 2.63002,-0.88653 0.65009,-0.6107 1.0638,-1.47752 1.24113,-2.60046 l -19.41484,0 0,17.46449 -5.55554,0 0,-22.84273 30.34862,0 0,4.37351 c -4e-5,5.77226 -2.80735,8.95389 -8.42197,9.5449 l 8.68792,8.92432 -6.73757,0 -8.80612,-8.83567 -6.94443,0 0,-5.14183"
         id="path3062"
         style="font-variant:normal;font-stretch:normal;font-family:Xirod;-inkscape-font-specification:Xirod" />
      <path
         d="m 284.74281,727.20626 -5.31913,0 0,-5.14183 5.31913,0 0,5.14183 m 6.26476,-8.62882 -12.32266,0 c -1.14264,2e-5 -2.09812,0.0985 -2.86643,0.29551 -0.76832,0.19702 -1.37904,0.53193 -1.83214,1.00472 -0.45312,0.47283 -0.77818,1.10324 -0.97518,1.89125 -0.19701,0.76833 -0.29551,1.74351 -0.2955,2.92552 l 0,5.9397 12.32266,0 c 1.12291,10e-6 2.05868,-0.0886 2.80732,-0.26595 0.7683,-0.197 1.38886,-0.52206 1.8617,-0.97518 0.47278,-0.4728 0.80769,-1.09337 1.00472,-1.86169 0.19698,-0.78802 0.29548,-1.77304 0.29551,-2.95508 l 0,-5.9988 m 5.58509,-5.37824 0,11.49524 c -3e-5,1.77306 -0.25614,3.3688 -0.76832,4.78722 -0.51224,1.39875 -1.26086,2.59062 -2.24586,3.57565 -0.96535,0.96532 -2.15723,1.70409 -3.57564,2.2163 -1.41845,0.51221 -3.03389,0.76832 -4.84632,0.76832 l -17.9964,0 0,-11.46569 c -1e-5,-1.73363 0.2561,-3.29982 0.76831,-4.69857 0.51221,-1.41842 1.25098,-2.62015 2.21631,-3.60519 0.98502,-0.985 2.1769,-1.74347 3.57564,-2.27541 1.41843,-0.53189 3.03387,-0.79784 4.84632,-0.79787 l 18.02596,0"
         id="path3064"
         style="font-variant:normal;font-stretch:normal;font-family:Xirod;-inkscape-font-specification:Xirod" />
      <path
         d="m 305.22287,736.04193 -4.55081,0 0,-4.0189 4.55081,0 0,4.0189"
         id="path3066"
         style="font-variant:normal;font-stretch:normal;font-family:Xirod;-inkscape-font-specification:Xirod" />
      <path
         d="m 314.10701,736.04193 0,-12.26356 c 0,-3.46727 -1.53664,-5.20091 -4.60991,-5.20093 l -1.41844,0 0,-5.37824 1.56619,0 c 3.38848,3e-5 5.91014,0.84715 7.56499,2.54137 1.65483,1.67456 2.48225,4.31442 2.48227,7.9196 l 0,12.38176 -5.5851,0"
         id="path3068"
         style="font-variant:normal;font-stretch:normal;font-family:Xirod;-inkscape-font-specification:Xirod" />
      <path
         d="m 328.19396,736.04193 -4.55082,0 0,-4.0189 4.55082,0 0,4.0189"
         id="path3070"
         style="font-variant:normal;font-stretch:normal;font-family:Xirod;-inkscape-font-specification:Xirod" />
      <path
         d="m 360.21635,736.04193 -28.22097,0 0,-13.9775 22.99049,0 c -0.35464,-2.32465 -1.64502,-3.48697 -3.87115,-3.48699 l -19.11934,0 0,-5.37824 17.93731,0 c 6.93455,3e-5 10.40183,3.2112 10.40186,9.63355 l 0,4.37351 -23.04958,0 0,3.42788 22.93138,0 0,5.40779"
         id="path3072"
         style="font-variant:normal;font-stretch:normal;font-family:Xirod;-inkscape-font-specification:Xirod" />
      <path
         d="m 368.65309,736.04193 -4.55081,0 0,-4.0189 4.55081,0 0,4.0189"
         id="path3074"
         style="font-variant:normal;font-stretch:normal;font-family:Xirod;-inkscape-font-specification:Xirod" />
      <path
         d="m 401.17783,713.1992 0,11.49524 c -3e-5,1.77306 -0.25613,3.3688 -0.76832,4.78722 -0.49254,1.39875 -1.2313,2.59062 -2.2163,3.57565 -0.96535,0.96532 -2.15723,1.70409 -3.57564,2.2163 -1.41846,0.51221 -3.04375,0.76832 -4.87588,0.76832 l -16.72572,0 0,-5.40779 16.63707,0 c 1.69422,10e-6 2.97476,-0.26595 3.8416,-0.79787 0.8865,-0.5516 1.49721,-1.42827 1.83215,-2.63001 l -12.91368,0 0,-5.14183 13.20918,0 0,-3.48699 -13.53424,0 c -2.28527,2e-5 -3.5855,1.16234 -3.9007,3.48699 l -5.31913,0 c 0.2561,-5.91013 3.72339,-8.8652 10.40186,-8.86523 l 17.90775,0"
         id="path3076"
         style="font-variant:normal;font-stretch:normal;font-family:Xirod;-inkscape-font-specification:Xirod" />
      <path
         d="m 409.86253,736.04193 -4.55081,0 0,-4.0189 4.55081,0 0,4.0189"
         id="path3078"
         style="font-variant:normal;font-stretch:normal;font-family:Xirod;-inkscape-font-specification:Xirod" />
      <path
         d="m 413.45341,713.1992 0,8.86523 17.19853,0 0,-8.86523 5.26004,0 0,22.84273 -5.26004,0 0,-8.83567 -22.78362,0 0,-14.00706 5.58509,0"
         id="path3080"
         style="font-variant:normal;font-stretch:normal;font-family:Xirod;-inkscape-font-specification:Xirod" />
      <path
         d="m 444.83861,736.04193 -4.55082,0 0,-4.0189 4.55082,0 0,4.0189"
         id="path3082"
         style="font-variant:normal;font-stretch:normal;font-family:Xirod;-inkscape-font-specification:Xirod" />
      <path
         d="m 475.97448,718.57744 -21.45384,0 0,3.48699 21.57204,0 0,4.34396 c -3e-5,6.42236 -3.47716,9.63354 -10.43141,9.63354 l -16.40067,0 0,-5.40779 17.5827,0 c 2.22613,10e-6 3.51652,-1.14262 3.87115,-3.42788 l -21.45385,0 0,-14.00706 26.71388,0 0,5.37824"
         id="path3084"
         style="font-variant:normal;font-stretch:normal;font-family:Xirod;-inkscape-font-specification:Xirod" />
      <path
         d="m 484.77831,736.04193 -4.55082,0 0,-4.0189 4.55082,0 0,4.0189"
         id="path3086"
         style="font-variant:normal;font-stretch:normal;font-family:Xirod;-inkscape-font-specification:Xirod" />
      <path
         d="m 506.60569,730.63414 c 2.22614,10e-6 3.51652,-1.14262 3.87115,-3.42788 l -16.19381,0 0,3.42788 12.32266,0 m 9.10163,-12.0567 -17.46449,0 c -2.32467,2e-5 -3.63475,1.16234 -3.93025,3.48699 l 21.5425,0 0,4.34396 c -3e-5,6.42236 -3.47717,9.63354 -10.43142,9.63354 l -16.40066,0 0,-13.20918 c -1e-5,-6.42235 3.46728,-9.63352 10.40186,-9.63355 l 16.28246,0 0,5.37824"
         id="path3088"
         style="font-variant:normal;font-stretch:normal;font-family:Xirod;-inkscape-font-specification:Xirod" />
      <path
         d="m 524.48711,736.04193 -4.55082,0 0,-4.0189 4.55082,0 0,4.0189"
         id="path3090"
         style="font-variant:normal;font-stretch:normal;font-family:Xirod;-inkscape-font-specification:Xirod" />
      <path
         d="m 531.90066,736.04193 13.7411,-15.80965 c 0.25609,-0.31519 0.87665,-0.90621 1.8617,-1.77304 -0.53194,0.0394 -1.06385,0.069 -1.59574,0.0887 -0.51224,0.0197 -1.0146,0.0296 -1.50709,0.0295 l -7.15128,0 c -2.28527,2e-5 -3.5855,1.16234 -3.9007,3.48699 l -5.34869,0 c 0.25611,-5.91013 3.73324,-8.8652 10.43142,-8.86523 l 19.88765,0 -19.41484,22.84273 -7.00353,0"
         id="path3092"
         style="font-variant:normal;font-stretch:normal;font-family:Xirod;-inkscape-font-specification:Xirod" />
      <path
         d="m 559.46318,736.04193 -4.55081,0 0,-4.0189 4.55081,0 0,4.0189"
         id="path3094"
         style="font-variant:normal;font-stretch:normal;font-family:Xirod;-inkscape-font-specification:Xirod" />
      <path
         d="m 571.24331,718.54789 c -1.24114,2e-5 -1.8617,0.56148 -1.86169,1.68439 -10e-6,1.31995 0.62055,1.97991 1.86169,1.9799 l 14.42077,0 c 1.2214,10e-6 1.83212,-0.65995 1.83214,-1.9799 -2e-5,-1.12291 -0.61074,-1.68437 -1.83214,-1.68439 l -14.42077,0 m 0,8.51061 c -1.24114,10e-6 -1.8617,0.65013 -1.86169,1.95035 -10e-6,1.16234 0.62055,1.7435 1.86169,1.7435 l 14.42077,0 c 1.2214,0 1.83212,-0.58116 1.83214,-1.7435 -2e-5,-1.30022 -0.61074,-1.95034 -1.83214,-1.95035 l -14.42077,0 m -1.47753,8.98343 c -4.17651,0 -6.26476,-1.93065 -6.26476,-5.79195 0,-1.73363 0.34475,-3.07326 1.03427,-4.0189 0.68952,-0.96531 1.66469,-1.57603 2.92553,-1.83214 -1.30024,-0.2364 -2.28526,-0.79786 -2.95508,-1.6844 -0.66982,-0.8865 -1.00472,-2.12764 -1.00472,-3.72339 0,-3.86128 2.08825,-5.79192 6.26476,-5.79195 l 17.37584,0 c 4.15677,3e-5 6.23517,1.93067 6.2352,5.79195 -3e-5,1.59575 -0.34479,2.83689 -1.03427,3.72339 -0.66985,0.88654 -1.63517,1.448 -2.89598,1.6844 1.24111,0.25611 2.20643,0.86683 2.89598,1.83214 0.68948,0.94564 1.03424,2.28527 1.03427,4.0189 -3e-5,3.8613 -2.07843,5.79195 -6.2352,5.79195 l -17.37584,0"
         id="path3096"
         style="font-variant:normal;font-stretch:normal;font-family:Xirod;-inkscape-font-specification:Xirod" />
      <path
         d="m 601.88469,736.04193 -4.55081,0 0,-4.0189 4.55081,0 0,4.0189"
         id="path3098"
         style="font-variant:normal;font-stretch:normal;font-family:Xirod;-inkscape-font-specification:Xirod" />
      <path
         d="m 628.58795,722.06443 0,-3.48699 -13.26829,0 c -2.24586,2e-5 -3.54609,1.16234 -3.9007,3.48699 l 17.16899,0 m -22.36992,8.56971 18.41012,0 c 1.18201,10e-6 2.08823,-0.28565 2.71867,-0.85697 0.63039,-0.59101 1.0244,-1.44798 1.18203,-2.57091 l -22.42902,0 0,-4.37351 c 0,-6.42235 3.46728,-9.63352 10.40186,-9.63355 l 17.34629,0 0,13.20919 c -3e-5,6.42236 -3.46731,9.63354 -10.40186,9.63354 l -17.22809,0 0,-5.40779"
         id="path3100"
         style="font-variant:normal;font-stretch:normal;font-family:Xirod;-inkscape-font-specification:Xirod" />
    </g>
  </g>
</svg>
